<svg xmlns="http://www.w3.org/2000/svg" width="72.928" height="109.088" viewBox="0 0 72.928 109.088">
  <g id="Groupe_14" data-name="Groupe 14" transform="translate(-102.202)">
    <g id="Groupe_15" data-name="Groupe 15" transform="translate(102.202)">
      <path id="Tracé_12" data-name="Tracé 12" d="M169.628,64.4h-.019V55.537a20.586,20.586,0,0,0-12.276-18.811V48.092a11.671,11.671,0,0,1,2.673,7.445V65.783h0c0,2.995,1.079,4.318,2.4,5.135-1.238.825-2.391,2.493-2.4,5.7v9.6A11.739,11.739,0,0,1,148.28,97.947H136.335V43.811H145.4V57.36a12.308,12.308,0,0,1-6.733,11.367v9.347A21.339,21.339,0,0,0,155,57.36V21.308A21.332,21.332,0,0,0,133.694,0h-4.681A21.332,21.332,0,0,0,107.7,21.308V32.733c0,3.5-3.566,6.6-5.5,6.6,1.937,0,5.5,3.1,5.5,6.6V57.36a21.336,21.336,0,0,0,19.028,21.184V98.087h-.575c-.956,0-3.834.143-5.184-2.309,0,0-1.745,3.861,1.307,6.655-3.052,2.794-1.307,6.655-1.307,6.655,1.351-2.451,4.228-2.309,5.184-2.309l22.891,0a20.584,20.584,0,0,0,20.561-20.561V77.6h.019c0-3.5,3.566-6.6,5.5-6.6-1.937,0-5.5-3.1-5.5-6.6m-52.32-7.04V45.085c0-2.793-.628-4.407-2.4-5.751,1.748-1.079,2.4-2.519,2.4-5.627v-12.4c0-6.878,4.827-12.473,11.705-12.473h4.681c6.878,0,11.705,5.6,11.705,12.473V34.976H126.157c-.956,0-3.834.143-5.184-2.309,0,0-1.745,3.861,1.307,6.655-3.052,2.794-1.307,6.655-1.307,6.655,1.351-2.451,4.228-2.309,5.184-2.309h.575V69.614c-5.64-1.086-9.425-6.165-9.425-12.254" transform="translate(-102.202)" fill="#fff"/>
    </g>
  </g>
</svg>
