<svg id="Groupe_19" data-name="Groupe 19" xmlns="http://www.w3.org/2000/svg" xmlns:xlink="http://www.w3.org/1999/xlink" width="346.876" height="353.631" viewBox="0 0 346.876 353.631">
  <defs>
    <clipPath id="clip-path">
      <rect id="Rectangle_37" data-name="Rectangle 37" width="346.876" height="353.631" fill="none"/>
    </clipPath>
  </defs>
  <g id="Groupe_12" data-name="Groupe 12" clip-path="url(#clip-path)">
    <path id="Tracé_6" data-name="Tracé 6" d="M47.562,335.274c2.8.029,3.976.248,4.944,1.418a.66.66,0,0,0,.509.239.736.736,0,0,0,.1-.007.659.659,0,0,0,.511-.4,6.047,6.047,0,0,0-1.226-6.4,6.045,6.045,0,0,0,1.226-6.4.657.657,0,0,0-.511-.4.619.619,0,0,0-.1-.007.66.66,0,0,0-.509.239c-.968,1.17-2.139,1.388-4.951,1.418H6.485c-2.8-.03-3.976-.248-4.944-1.418a.66.66,0,0,0-.509-.239.619.619,0,0,0-.1.007.657.657,0,0,0-.511.4,6.045,6.045,0,0,0,1.226,6.4,6.047,6.047,0,0,0-1.226,6.4.659.659,0,0,0,.511.4.736.736,0,0,0,.1.007.66.66,0,0,0,.509-.239c.968-1.17,2.139-1.389,4.951-1.418H21.455v18.3c0,1.932-2.224,3.894-4.3,4.514a.66.66,0,0,0,0,1.264c2.077.62,4.3,2.582,4.3,4.514v20.717c0,.022,0,.043,0,.064-.033,2.793-.206,4.24-1.57,5.368a.66.66,0,0,0,.171,1.119,7.35,7.35,0,0,0,2.557.454,6.019,6.019,0,0,0,4.408-1.821,6.02,6.02,0,0,0,4.408,1.821,7.363,7.363,0,0,0,2.558-.454.66.66,0,0,0,.171-1.119c-1.365-1.129-1.538-2.576-1.57-5.372,0-.019,0-.04,0-.06V363.866c0-1.931,2.225-3.893,4.3-4.513a.66.66,0,0,0,0-1.264c-2.076-.62-4.3-2.581-4.3-4.513v-18.3Z" transform="translate(0 -38.858)" fill="#fff"/>
    <path id="Tracé_7" data-name="Tracé 7" d="M179.21,323.723a.66.66,0,0,0-.511-.4.756.756,0,0,0-.1-.007.659.659,0,0,0-.509.239c-.968,1.17-2.139,1.389-4.951,1.418H132.07c-2.806-.029-3.976-.248-4.945-1.418a.658.658,0,0,0-.509-.239.757.757,0,0,0-.1.007.662.662,0,0,0-.511.4,6.045,6.045,0,0,0,1.226,6.4,6.045,6.045,0,0,0-1.226,6.4.661.661,0,0,0,.511.4.644.644,0,0,0,.1.008.66.66,0,0,0,.509-.239c.969-1.171,2.139-1.389,4.951-1.419h14.963v18.3c0,1.932-2.223,3.894-4.3,4.514a.66.66,0,0,0,0,1.265c2.077.619,4.3,2.581,4.3,4.513v20.718a.526.526,0,0,0,0,.064c-.033,2.793-.206,4.239-1.57,5.368a.66.66,0,0,0,.171,1.119,7.377,7.377,0,0,0,2.558.453,6.02,6.02,0,0,0,4.408-1.82,6.018,6.018,0,0,0,4.408,1.82,7.364,7.364,0,0,0,2.557-.453.659.659,0,0,0,.171-1.119c-1.365-1.129-1.538-2.575-1.57-5.369q0-.032,0-.063V363.867c0-1.932,2.224-3.893,4.3-4.513a.66.66,0,0,0,0-1.265c-2.076-.619-4.3-2.581-4.3-4.513v-18.3h14.97c2.8.03,3.976.248,4.944,1.419a.662.662,0,0,0,.509.239.643.643,0,0,0,.1-.008.659.659,0,0,0,.511-.4,6.046,6.046,0,0,0-1.226-6.4,6.045,6.045,0,0,0,1.226-6.4" transform="translate(-15.093 -38.858)" fill="#fff"/>
    <path id="Tracé_8" data-name="Tracé 8" d="M246.387,323.723a.66.66,0,0,0-.511-.4.644.644,0,0,0-.1-.008.662.662,0,0,0-.509.239c-.968,1.17-2.139,1.389-4.951,1.418h-41.07c-2.806-.029-3.976-.248-4.944-1.418a.663.663,0,0,0-.509-.239.634.634,0,0,0-.1.008.66.66,0,0,0-.511.4,6.045,6.045,0,0,0,1.226,6.4,6.045,6.045,0,0,0-1.226,6.4.658.658,0,0,0,.511.4.634.634,0,0,0,.1.008.659.659,0,0,0,.509-.239c.968-1.17,2.138-1.389,4.95-1.418h14.964v18.3c0,1.933-2.224,3.895-4.3,4.514a.66.66,0,0,0,0,1.265c2.077.619,4.3,2.581,4.3,4.514v20.717c0,.02,0,.04,0,.06-.033,2.8-.206,4.243-1.57,5.372a.659.659,0,0,0,.171,1.119,7.352,7.352,0,0,0,2.557.454,6.021,6.021,0,0,0,4.408-1.821,6.019,6.019,0,0,0,4.408,1.821,7.353,7.353,0,0,0,2.557-.454.659.659,0,0,0,.171-1.119c-1.365-1.129-1.537-2.575-1.57-5.368,0-.021,0-.043,0-.064V363.867c0-1.932,2.225-3.893,4.3-4.513a.66.66,0,0,0,0-1.265c-2.076-.619-4.3-2.581-4.3-4.513v-18.3h14.97c2.8.029,3.976.248,4.944,1.418a.659.659,0,0,0,.509.239.644.644,0,0,0,.1-.008.658.658,0,0,0,.511-.4,6.045,6.045,0,0,0-1.226-6.4,6.045,6.045,0,0,0,1.226-6.4" transform="translate(-23.167 -38.858)" fill="#fff"/>
    <path id="Tracé_9" data-name="Tracé 9" d="M315.632,358.009c-2.064-.616-4.284-2.567-4.3-4.491V345.7a21.092,21.092,0,0,0-21.07-21.069h-6.133a21.092,21.092,0,0,0-21.07,21.069v7.913c-.072,1.933-2.286,3.792-4.293,4.391a.66.66,0,0,0,0,1.264c2.007.6,4.221,2.459,4.294,4.417v7.888a21.093,21.093,0,0,0,21.07,21.07h6.133a21.093,21.093,0,0,0,21.07-21.07V363.76c.016-1.918,2.236-3.87,4.3-4.486a.66.66,0,0,0,0-1.264m-15.623,14.4a9.757,9.757,0,0,1-9.747,9.746h-6.133a9.756,9.756,0,0,1-9.746-9.746v-27.54a9.756,9.756,0,0,1,9.746-9.746h6.133a9.757,9.757,0,0,1,9.747,9.746Z" transform="translate(-31.043 -39.017)" fill="#fff"/>
    <path id="Tracé_10" data-name="Tracé 10" d="M385.893,358.009c-2.063-.616-4.283-2.568-4.3-4.492V345.7a21.093,21.093,0,0,0-21.07-21.069H354.39A21.093,21.093,0,0,0,333.32,345.7v7.912c-.072,1.934-2.284,3.792-4.293,4.392a.66.66,0,0,0,0,1.264c2.009.6,4.22,2.459,4.293,4.417v7.888a21.094,21.094,0,0,0,21.07,21.07h6.134a21.094,21.094,0,0,0,21.07-21.07V363.76c.016-1.919,2.236-3.871,4.3-4.487a.66.66,0,0,0,0-1.264m-15.623,14.4a9.757,9.757,0,0,1-9.746,9.746H354.39a9.757,9.757,0,0,1-9.746-9.746v-27.54a9.757,9.757,0,0,1,9.746-9.746h6.134a9.757,9.757,0,0,1,9.746,9.746Z" transform="translate(-39.488 -39.017)" fill="#fff"/>
    <path id="Tracé_11" data-name="Tracé 11" d="M120.071,389.7c-2.081-1.3-2.9-2.917-4.156-6.044-.326-.811-.477-1.2-.478-1.205l-6.8-18.306c-.774-2.125.865-4.38,2.382-5.059a.66.66,0,0,0-.161-1.254c-2.244-.375-5.2-1.711-6.139-4.242L94.162,325.16a.66.66,0,0,0-.619-.43h-10a.659.659,0,0,0-.619.43L72.365,353.588c-.941,2.53-3.895,3.867-6.14,4.242a.66.66,0,0,0-.16,1.254c1.517.679,3.156,2.934,2.38,5.062l-6.8,18.311s-.151.391-.475,1.2c-1.256,3.128-2.075,4.744-4.157,6.044a.66.66,0,0,0,.084,1.163,7.619,7.619,0,0,0,2.852.525,7.961,7.961,0,0,0,4.968-1.753c.552.919,1.656,1.732,3.837,1.732a11.758,11.758,0,0,0,3.15-.478.66.66,0,0,0,.313-1.048c-.889-1.086-.534-2.571.659-5.706.305-.8.465-1.19.467-1.2l3.439-9.263H100.3l3.43,9.241c.011.027.171.416.476,1.218,1.193,3.135,1.548,4.62.659,5.706a.661.661,0,0,0,.312,1.048,11.777,11.777,0,0,0,3.151.478c2.181,0,3.285-.813,3.837-1.732a7.959,7.959,0,0,0,4.968,1.753,7.619,7.619,0,0,0,2.852-.525.66.66,0,0,0,.083-1.163M96.476,363.372H80.608l7.933-21.364Z" transform="translate(-6.815 -39.028)" fill="#fff"/>
    <path id="Tracé_12" data-name="Tracé 12" d="M256.639,147.508H256.6v-20.3a47.153,47.153,0,0,0-28.119-43.087v26.035a26.732,26.732,0,0,1,6.124,17.053v23.468h.011c0,6.859,2.471,9.89,5.494,11.762-2.837,1.891-5.477,5.711-5.505,13.058v21.993a26.889,26.889,0,0,1-26.858,26.859H180.384v-124h20.76v31.034c0,11.584-5.992,21.556-15.421,26.035v21.409a48.877,48.877,0,0,0,37.417-47.444V48.806A48.861,48.861,0,0,0,174.334,0H163.612a48.861,48.861,0,0,0-48.806,48.806V74.975c0,8.015-8.168,15.119-12.6,15.119,4.436,0,12.6,7.1,12.6,15.118v26.17A48.871,48.871,0,0,0,158.389,179.9v44.762h-1.317c-2.19,0-8.781.326-11.875-5.289,0,0-4,8.843,2.994,15.244-6.99,6.4-2.994,15.243-2.994,15.243,3.093-5.615,9.685-5.289,11.875-5.289l52.431.007A47.148,47.148,0,0,0,256.6,197.488V177.744h.043c0-8.015,8.167-15.118,12.6-15.118-4.437,0-12.6-7.1-12.6-15.119M136.8,131.382V103.266c0-6.4-1.439-10.094-5.508-13.173,4-2.471,5.508-5.77,5.508-12.888v-28.4c0-15.754,11.057-28.57,26.811-28.57h10.721c15.753,0,26.811,12.816,26.811,28.57V80.112H157.072c-2.19,0-8.781.326-11.875-5.289,0,0-4,8.843,2.994,15.243-6.99,6.4-2.994,15.244-2.994,15.244,3.093-5.615,9.685-5.289,11.875-5.289h1.317V159.45c-12.917-2.488-21.587-14.122-21.587-28.068" transform="translate(-12.283)" fill="#fff"/>
  </g>
</svg>
